<svg id="Ebene_3" data-name="Ebene 3" xmlns="http://www.w3.org/2000/svg" viewBox="0 0 182.07 129.49"><defs><style>.cls-1{fill:#1d1d1b;}</style></defs><path class="cls-1" d="M98.41,68.26a1.71,1.71,0,0,0-.58-1.35,3.15,3.15,0,0,0-2.09-.54,11.91,11.91,0,0,0-1.87.14v6.67H95.1V70.4h.62c.7,0,1,.3,1.22,1.19a9.52,9.52,0,0,0,.45,1.59h1.27a13.45,13.45,0,0,1-.53-1.88A1.72,1.72,0,0,0,97.19,70v0A1.8,1.8,0,0,0,98.41,68.26ZM95.83,69.5H95.1V67.36a3.54,3.54,0,0,1,.76-.06c.8,0,1.33.34,1.33,1.08S96.66,69.5,95.83,69.5Zm-48.7-3.08h5.11v1H50.3v5.73H49.06V67.45H47.13Zm-15,0h1.23v6.76H32.12Zm7.21,0h1.15v6.76H39.2l-1.76-3a21.54,21.54,0,0,1-1.22-2.33h0c.05.88.06,1.77.06,2.88v2.42H35.12V66.42h1.4l1.75,2.9a19.49,19.49,0,0,1,1.16,2.27h0a27.74,27.74,0,0,1-.12-2.81Zm7,4.84c0,1.08-.82,2-2.57,2a4.07,4.07,0,0,1-1.83-.43l.28-1a3.41,3.41,0,0,0,1.63.43c.79,0,1.24-.37,1.24-.92s-.34-.82-1.21-1.13c-1.11-.4-1.82-1-1.82-2s.92-1.94,2.38-1.94a3.58,3.58,0,0,1,1.63.34l-.3,1a2.87,2.87,0,0,0-1.35-.32c-.78,0-1.12.42-1.12.81s.39.77,1.3,1.12C45.74,69.69,46.31,70.28,46.31,71.26Zm40.34-3.2a1.43,1.43,0,0,0-.71-1.26A3.19,3.19,0,0,0,84,66.37a10.32,10.32,0,0,0-1.8.14v6.65a11.92,11.92,0,0,0,1.51.09,3.76,3.76,0,0,0,2.51-.63,1.73,1.73,0,0,0,.66-1.4,1.71,1.71,0,0,0-1.37-1.67v0A1.59,1.59,0,0,0,86.65,68.06Zm-3.22-.73a3.46,3.46,0,0,1,.71,0c.78,0,1.26.29,1.26.92s-.48,1-1.33,1h-.64Zm2.15,3.85c0,.84-.7,1.14-1.49,1.14a4,4,0,0,1-.66,0V70.08h.62C84.9,70.08,85.58,70.4,85.58,71.18Zm15.62-4.76v5.73H104v1h-4V66.42ZM163.33,5.67h13.38a121.56,121.56,0,0,1-121,118.23V110.53A108.17,108.17,0,0,0,163.33,5.67ZM112.43,55.1A14.31,14.31,0,0,0,118,43.7c0-6.94-4.55-11.56-10.69-13.24v-.15c6.06-2.24,8.85-6.7,8.85-11.49A11.7,11.7,0,0,0,109.72,8.3c-3.91-2.31-8.46-3-15.87-3A96.54,96.54,0,0,0,78.14,6.39V59.17A95.75,95.75,0,0,0,91.3,60C102,60,108.52,58.21,112.43,55.1ZM90.18,14.44a33.08,33.08,0,0,1,5.18-.32c5.51,0,8.62,2.15,8.62,6.22S100.55,27,94.17,27h-4Zm0,21.21h4.15c6.06,0,10.92,2.15,10.92,7.57,0,5.58-4.86,7.73-10.36,7.73a40.83,40.83,0,0,1-4.71-.15Zm19.1,32.22h0c0,.88.06,1.77.06,2.88v2.42h-1.13V66.42h1.4l1.75,2.9a19.49,19.49,0,0,1,1.16,2.27h0c-.08-.91-.11-1.78-.11-2.81V66.42h1.14v6.76h-1.28l-1.76-3A21.54,21.54,0,0,1,109.28,67.87Zm-4.1,5.31V66.42h1.23v6.76Zm-15.6-5.75v1.75h2.55v1H89.58v2h2.85v1H88.34V66.42h3.94v1ZM7.35,72.16h3.47v1H5.7V72.5l3.46-5v0H6v-1h4.76v.72l-3.42,5Zm8.72-5.74H17.3v3.86c0,2.09-1.07,3-2.7,3s-2.58-.87-2.58-3V66.42h1.23v3.94c0,1.33.56,1.94,1.39,1.94s1.43-.61,1.43-1.94Zm9.63,5.75h2.85v1H24.47V66.42H28.4v1H25.7v1.75h2.55v1H25.7ZM47.13,59.41H5.36V52.87L31,16v-.31H7.75v-10h39v7L21.7,49v.32H47.13ZM78.66,73.18H74.57V66.42H78.5v1H75.8v1.75h2.55v1H75.8v2h2.86ZM23,71.26c0,1.08-.82,2-2.57,2a4,4,0,0,1-1.82-.43l.27-1a3.41,3.41,0,0,0,1.63.43c.8,0,1.24-.37,1.24-.92s-.34-.82-1.21-1.13c-1.11-.4-1.82-1-1.82-2s.92-1.94,2.39-1.94a3.56,3.56,0,0,1,1.62.34l-.3,1a2.87,2.87,0,0,0-1.35-.32c-.78,0-1.12.42-1.12.81s.39.77,1.3,1.12C22.47,69.69,23,70.28,23,71.26ZM68,59.41H55.8V5.67H68Zm2.27,8H68.34v-1h5.11v1h-2v5.73H70.26Zm-16.89-1H54.6v6.76H53.37Zm4.26,1H55.71v-1h5.11v1h-2v5.73H57.63Zm5.54-1v3.94c0,1.33.55,1.94,1.38,1.94S66,71.69,66,70.36V66.42h1.23v3.86c0,2.09-1.07,3-2.7,3s-2.58-.87-2.58-3V66.42Z"/></svg>